%TF.GenerationSoftware,KiCad,Pcbnew,9.0.6*%
%TF.CreationDate,2025-12-10T10:35:02-08:00*%
%TF.ProjectId,hackpad,6861636b-7061-4642-9e6b-696361645f70,rev?*%
%TF.SameCoordinates,Original*%
%TF.FileFunction,Legend,Bot*%
%TF.FilePolarity,Positive*%
%FSLAX46Y46*%
G04 Gerber Fmt 4.6, Leading zero omitted, Abs format (unit mm)*
G04 Created by KiCad (PCBNEW 9.0.6) date 2025-12-10 10:35:02*
%MOMM*%
%LPD*%
G01*
G04 APERTURE LIST*
%ADD10C,0.100000*%
%ADD11C,0.101600*%
%ADD12C,0.127000*%
%ADD13C,0.504000*%
G04 APERTURE END LIST*
D10*
X101391353Y-115712419D02*
X100724687Y-116712419D01*
X100724687Y-115712419D02*
X101391353Y-116712419D01*
X100343734Y-116712419D02*
X100343734Y-115712419D01*
X99915163Y-116426704D02*
X99438973Y-116426704D01*
X100010401Y-116712419D02*
X99677068Y-115712419D01*
X99677068Y-115712419D02*
X99343735Y-116712419D01*
X98819925Y-115712419D02*
X98629449Y-115712419D01*
X98629449Y-115712419D02*
X98534211Y-115760038D01*
X98534211Y-115760038D02*
X98438973Y-115855276D01*
X98438973Y-115855276D02*
X98391354Y-116045752D01*
X98391354Y-116045752D02*
X98391354Y-116379085D01*
X98391354Y-116379085D02*
X98438973Y-116569561D01*
X98438973Y-116569561D02*
X98534211Y-116664800D01*
X98534211Y-116664800D02*
X98629449Y-116712419D01*
X98629449Y-116712419D02*
X98819925Y-116712419D01*
X98819925Y-116712419D02*
X98915163Y-116664800D01*
X98915163Y-116664800D02*
X99010401Y-116569561D01*
X99010401Y-116569561D02*
X99058020Y-116379085D01*
X99058020Y-116379085D02*
X99058020Y-116045752D01*
X99058020Y-116045752D02*
X99010401Y-115855276D01*
X99010401Y-115855276D02*
X98915163Y-115760038D01*
X98915163Y-115760038D02*
X98819925Y-115712419D01*
X97200877Y-116712419D02*
X97200877Y-115712419D01*
X97200877Y-116188609D02*
X96629449Y-116188609D01*
X96629449Y-116712419D02*
X96629449Y-115712419D01*
X96153258Y-116188609D02*
X95819925Y-116188609D01*
X95677068Y-116712419D02*
X96153258Y-116712419D01*
X96153258Y-116712419D02*
X96153258Y-115712419D01*
X96153258Y-115712419D02*
X95677068Y-115712419D01*
X94677068Y-116712419D02*
X95010401Y-116236228D01*
X95248496Y-116712419D02*
X95248496Y-115712419D01*
X95248496Y-115712419D02*
X94867544Y-115712419D01*
X94867544Y-115712419D02*
X94772306Y-115760038D01*
X94772306Y-115760038D02*
X94724687Y-115807657D01*
X94724687Y-115807657D02*
X94677068Y-115902895D01*
X94677068Y-115902895D02*
X94677068Y-116045752D01*
X94677068Y-116045752D02*
X94724687Y-116140990D01*
X94724687Y-116140990D02*
X94772306Y-116188609D01*
X94772306Y-116188609D02*
X94867544Y-116236228D01*
X94867544Y-116236228D02*
X95248496Y-116236228D01*
X94248496Y-116188609D02*
X93915163Y-116188609D01*
X93772306Y-116712419D02*
X94248496Y-116712419D01*
X94248496Y-116712419D02*
X94248496Y-115712419D01*
X94248496Y-115712419D02*
X93772306Y-115712419D01*
D11*
X105503809Y-107033479D02*
X105503809Y-107547526D01*
X105503809Y-107547526D02*
X105473571Y-107608002D01*
X105473571Y-107608002D02*
X105443333Y-107638241D01*
X105443333Y-107638241D02*
X105382857Y-107668479D01*
X105382857Y-107668479D02*
X105261904Y-107668479D01*
X105261904Y-107668479D02*
X105201428Y-107638241D01*
X105201428Y-107638241D02*
X105171190Y-107608002D01*
X105171190Y-107608002D02*
X105140952Y-107547526D01*
X105140952Y-107547526D02*
X105140952Y-107033479D01*
X104505952Y-107668479D02*
X104868809Y-107668479D01*
X104687381Y-107668479D02*
X104687381Y-107033479D01*
X104687381Y-107033479D02*
X104747857Y-107124193D01*
X104747857Y-107124193D02*
X104808333Y-107184669D01*
X104808333Y-107184669D02*
X104868809Y-107214907D01*
D12*
%TO.C,U1*%
X87630000Y-127889000D02*
X87630000Y-110744000D01*
D10*
X89535000Y-108839000D02*
X103505000Y-108839000D01*
D12*
X89535000Y-108839000D02*
X103505000Y-108839000D01*
X92016000Y-107929000D02*
X92016000Y-108839000D01*
X100511272Y-107429000D02*
X92516000Y-107429000D01*
X101015000Y-108839000D02*
X101011272Y-107928728D01*
X103505000Y-129794000D02*
X89535000Y-129794000D01*
X105410000Y-127889000D02*
X105410000Y-110744000D01*
X87630000Y-110744000D02*
G75*
G02*
X89535000Y-108839000I1905000J0D01*
G01*
X89535000Y-129794000D02*
G75*
G02*
X87630000Y-127889000I0J1905000D01*
G01*
X92016000Y-107929000D02*
G75*
G02*
X92516000Y-107429000I500000J0D01*
G01*
X100511272Y-107429000D02*
G75*
G02*
X101011273Y-107928728I-18J-500019D01*
G01*
X103505000Y-108839000D02*
G75*
G02*
X105410000Y-110744000I-1J-1905001D01*
G01*
X105410000Y-127889000D02*
G75*
G02*
X103505000Y-129794000I-1905001J1D01*
G01*
D13*
X104579000Y-109960000D02*
G75*
G02*
X104075000Y-109960000I-252000J0D01*
G01*
X104075000Y-109960000D02*
G75*
G02*
X104579000Y-109960000I252000J0D01*
G01*
X105722000Y-109080000D02*
G75*
G02*
X105218000Y-109080000I-252000J0D01*
G01*
X105218000Y-109080000D02*
G75*
G02*
X105722000Y-109080000I252000J0D01*
G01*
%TD*%
M02*
