%TF.GenerationSoftware,KiCad,Pcbnew,9.0.6*%
%TF.CreationDate,2025-12-10T10:35:02-08:00*%
%TF.ProjectId,hackpad,6861636b-7061-4642-9e6b-696361645f70,rev?*%
%TF.SameCoordinates,Original*%
%TF.FileFunction,Legend,Top*%
%TF.FilePolarity,Positive*%
%FSLAX46Y46*%
G04 Gerber Fmt 4.6, Leading zero omitted, Abs format (unit mm)*
G04 Created by KiCad (PCBNEW 9.0.6) date 2025-12-10 10:35:02*
%MOMM*%
%LPD*%
G01*
G04 APERTURE LIST*
%ADD10C,0.100000*%
%ADD11C,0.150000*%
%ADD12C,0.120000*%
G04 APERTURE END LIST*
D10*
X73011312Y-111537180D02*
X72963693Y-111584800D01*
X72963693Y-111584800D02*
X72820836Y-111632419D01*
X72820836Y-111632419D02*
X72725598Y-111632419D01*
X72725598Y-111632419D02*
X72582741Y-111584800D01*
X72582741Y-111584800D02*
X72487503Y-111489561D01*
X72487503Y-111489561D02*
X72439884Y-111394323D01*
X72439884Y-111394323D02*
X72392265Y-111203847D01*
X72392265Y-111203847D02*
X72392265Y-111060990D01*
X72392265Y-111060990D02*
X72439884Y-110870514D01*
X72439884Y-110870514D02*
X72487503Y-110775276D01*
X72487503Y-110775276D02*
X72582741Y-110680038D01*
X72582741Y-110680038D02*
X72725598Y-110632419D01*
X72725598Y-110632419D02*
X72820836Y-110632419D01*
X72820836Y-110632419D02*
X72963693Y-110680038D01*
X72963693Y-110680038D02*
X73011312Y-110727657D01*
X73439884Y-111632419D02*
X73439884Y-110632419D01*
X73868455Y-111632419D02*
X73868455Y-111108609D01*
X73868455Y-111108609D02*
X73820836Y-111013371D01*
X73820836Y-111013371D02*
X73725598Y-110965752D01*
X73725598Y-110965752D02*
X73582741Y-110965752D01*
X73582741Y-110965752D02*
X73487503Y-111013371D01*
X73487503Y-111013371D02*
X73439884Y-111060990D01*
X74725598Y-111584800D02*
X74630360Y-111632419D01*
X74630360Y-111632419D02*
X74439884Y-111632419D01*
X74439884Y-111632419D02*
X74344646Y-111584800D01*
X74344646Y-111584800D02*
X74297027Y-111489561D01*
X74297027Y-111489561D02*
X74297027Y-111108609D01*
X74297027Y-111108609D02*
X74344646Y-111013371D01*
X74344646Y-111013371D02*
X74439884Y-110965752D01*
X74439884Y-110965752D02*
X74630360Y-110965752D01*
X74630360Y-110965752D02*
X74725598Y-111013371D01*
X74725598Y-111013371D02*
X74773217Y-111108609D01*
X74773217Y-111108609D02*
X74773217Y-111203847D01*
X74773217Y-111203847D02*
X74297027Y-111299085D01*
X75154170Y-111584800D02*
X75249408Y-111632419D01*
X75249408Y-111632419D02*
X75439884Y-111632419D01*
X75439884Y-111632419D02*
X75535122Y-111584800D01*
X75535122Y-111584800D02*
X75582741Y-111489561D01*
X75582741Y-111489561D02*
X75582741Y-111441942D01*
X75582741Y-111441942D02*
X75535122Y-111346704D01*
X75535122Y-111346704D02*
X75439884Y-111299085D01*
X75439884Y-111299085D02*
X75297027Y-111299085D01*
X75297027Y-111299085D02*
X75201789Y-111251466D01*
X75201789Y-111251466D02*
X75154170Y-111156228D01*
X75154170Y-111156228D02*
X75154170Y-111108609D01*
X75154170Y-111108609D02*
X75201789Y-111013371D01*
X75201789Y-111013371D02*
X75297027Y-110965752D01*
X75297027Y-110965752D02*
X75439884Y-110965752D01*
X75439884Y-110965752D02*
X75535122Y-111013371D01*
X75868456Y-110965752D02*
X76249408Y-110965752D01*
X76011313Y-110632419D02*
X76011313Y-111489561D01*
X76011313Y-111489561D02*
X76058932Y-111584800D01*
X76058932Y-111584800D02*
X76154170Y-111632419D01*
X76154170Y-111632419D02*
X76249408Y-111632419D01*
X76963694Y-111584800D02*
X76868456Y-111632419D01*
X76868456Y-111632419D02*
X76677980Y-111632419D01*
X76677980Y-111632419D02*
X76582742Y-111584800D01*
X76582742Y-111584800D02*
X76535123Y-111489561D01*
X76535123Y-111489561D02*
X76535123Y-111108609D01*
X76535123Y-111108609D02*
X76582742Y-111013371D01*
X76582742Y-111013371D02*
X76677980Y-110965752D01*
X76677980Y-110965752D02*
X76868456Y-110965752D01*
X76868456Y-110965752D02*
X76963694Y-111013371D01*
X76963694Y-111013371D02*
X77011313Y-111108609D01*
X77011313Y-111108609D02*
X77011313Y-111203847D01*
X77011313Y-111203847D02*
X76535123Y-111299085D01*
X77439885Y-111632419D02*
X77439885Y-110965752D01*
X77439885Y-111156228D02*
X77487504Y-111060990D01*
X77487504Y-111060990D02*
X77535123Y-111013371D01*
X77535123Y-111013371D02*
X77630361Y-110965752D01*
X77630361Y-110965752D02*
X77725599Y-110965752D01*
X78106552Y-110632419D02*
X78011314Y-110822895D01*
X78487504Y-111584800D02*
X78582742Y-111632419D01*
X78582742Y-111632419D02*
X78773218Y-111632419D01*
X78773218Y-111632419D02*
X78868456Y-111584800D01*
X78868456Y-111584800D02*
X78916075Y-111489561D01*
X78916075Y-111489561D02*
X78916075Y-111441942D01*
X78916075Y-111441942D02*
X78868456Y-111346704D01*
X78868456Y-111346704D02*
X78773218Y-111299085D01*
X78773218Y-111299085D02*
X78630361Y-111299085D01*
X78630361Y-111299085D02*
X78535123Y-111251466D01*
X78535123Y-111251466D02*
X78487504Y-111156228D01*
X78487504Y-111156228D02*
X78487504Y-111108609D01*
X78487504Y-111108609D02*
X78535123Y-111013371D01*
X78535123Y-111013371D02*
X78630361Y-110965752D01*
X78630361Y-110965752D02*
X78773218Y-110965752D01*
X78773218Y-110965752D02*
X78868456Y-111013371D01*
X80106552Y-111632419D02*
X80106552Y-110632419D01*
X80106552Y-111108609D02*
X80677980Y-111108609D01*
X80677980Y-111632419D02*
X80677980Y-110632419D01*
X81582742Y-111632419D02*
X81582742Y-111108609D01*
X81582742Y-111108609D02*
X81535123Y-111013371D01*
X81535123Y-111013371D02*
X81439885Y-110965752D01*
X81439885Y-110965752D02*
X81249409Y-110965752D01*
X81249409Y-110965752D02*
X81154171Y-111013371D01*
X81582742Y-111584800D02*
X81487504Y-111632419D01*
X81487504Y-111632419D02*
X81249409Y-111632419D01*
X81249409Y-111632419D02*
X81154171Y-111584800D01*
X81154171Y-111584800D02*
X81106552Y-111489561D01*
X81106552Y-111489561D02*
X81106552Y-111394323D01*
X81106552Y-111394323D02*
X81154171Y-111299085D01*
X81154171Y-111299085D02*
X81249409Y-111251466D01*
X81249409Y-111251466D02*
X81487504Y-111251466D01*
X81487504Y-111251466D02*
X81582742Y-111203847D01*
X82487504Y-111584800D02*
X82392266Y-111632419D01*
X82392266Y-111632419D02*
X82201790Y-111632419D01*
X82201790Y-111632419D02*
X82106552Y-111584800D01*
X82106552Y-111584800D02*
X82058933Y-111537180D01*
X82058933Y-111537180D02*
X82011314Y-111441942D01*
X82011314Y-111441942D02*
X82011314Y-111156228D01*
X82011314Y-111156228D02*
X82058933Y-111060990D01*
X82058933Y-111060990D02*
X82106552Y-111013371D01*
X82106552Y-111013371D02*
X82201790Y-110965752D01*
X82201790Y-110965752D02*
X82392266Y-110965752D01*
X82392266Y-110965752D02*
X82487504Y-111013371D01*
X82916076Y-111632419D02*
X82916076Y-110632419D01*
X83011314Y-111251466D02*
X83297028Y-111632419D01*
X83297028Y-110965752D02*
X82916076Y-111346704D01*
X83725600Y-110965752D02*
X83725600Y-111965752D01*
X83725600Y-111013371D02*
X83820838Y-110965752D01*
X83820838Y-110965752D02*
X84011314Y-110965752D01*
X84011314Y-110965752D02*
X84106552Y-111013371D01*
X84106552Y-111013371D02*
X84154171Y-111060990D01*
X84154171Y-111060990D02*
X84201790Y-111156228D01*
X84201790Y-111156228D02*
X84201790Y-111441942D01*
X84201790Y-111441942D02*
X84154171Y-111537180D01*
X84154171Y-111537180D02*
X84106552Y-111584800D01*
X84106552Y-111584800D02*
X84011314Y-111632419D01*
X84011314Y-111632419D02*
X83820838Y-111632419D01*
X83820838Y-111632419D02*
X83725600Y-111584800D01*
X85058933Y-111632419D02*
X85058933Y-111108609D01*
X85058933Y-111108609D02*
X85011314Y-111013371D01*
X85011314Y-111013371D02*
X84916076Y-110965752D01*
X84916076Y-110965752D02*
X84725600Y-110965752D01*
X84725600Y-110965752D02*
X84630362Y-111013371D01*
X85058933Y-111584800D02*
X84963695Y-111632419D01*
X84963695Y-111632419D02*
X84725600Y-111632419D01*
X84725600Y-111632419D02*
X84630362Y-111584800D01*
X84630362Y-111584800D02*
X84582743Y-111489561D01*
X84582743Y-111489561D02*
X84582743Y-111394323D01*
X84582743Y-111394323D02*
X84630362Y-111299085D01*
X84630362Y-111299085D02*
X84725600Y-111251466D01*
X84725600Y-111251466D02*
X84963695Y-111251466D01*
X84963695Y-111251466D02*
X85058933Y-111203847D01*
X85963695Y-111632419D02*
X85963695Y-110632419D01*
X85963695Y-111584800D02*
X85868457Y-111632419D01*
X85868457Y-111632419D02*
X85677981Y-111632419D01*
X85677981Y-111632419D02*
X85582743Y-111584800D01*
X85582743Y-111584800D02*
X85535124Y-111537180D01*
X85535124Y-111537180D02*
X85487505Y-111441942D01*
X85487505Y-111441942D02*
X85487505Y-111156228D01*
X85487505Y-111156228D02*
X85535124Y-111060990D01*
X85535124Y-111060990D02*
X85582743Y-111013371D01*
X85582743Y-111013371D02*
X85677981Y-110965752D01*
X85677981Y-110965752D02*
X85868457Y-110965752D01*
X85868457Y-110965752D02*
X85963695Y-111013371D01*
D11*
X82010417Y-154458200D02*
X82153274Y-154505819D01*
X82153274Y-154505819D02*
X82391369Y-154505819D01*
X82391369Y-154505819D02*
X82486607Y-154458200D01*
X82486607Y-154458200D02*
X82534226Y-154410580D01*
X82534226Y-154410580D02*
X82581845Y-154315342D01*
X82581845Y-154315342D02*
X82581845Y-154220104D01*
X82581845Y-154220104D02*
X82534226Y-154124866D01*
X82534226Y-154124866D02*
X82486607Y-154077247D01*
X82486607Y-154077247D02*
X82391369Y-154029628D01*
X82391369Y-154029628D02*
X82200893Y-153982009D01*
X82200893Y-153982009D02*
X82105655Y-153934390D01*
X82105655Y-153934390D02*
X82058036Y-153886771D01*
X82058036Y-153886771D02*
X82010417Y-153791533D01*
X82010417Y-153791533D02*
X82010417Y-153696295D01*
X82010417Y-153696295D02*
X82058036Y-153601057D01*
X82058036Y-153601057D02*
X82105655Y-153553438D01*
X82105655Y-153553438D02*
X82200893Y-153505819D01*
X82200893Y-153505819D02*
X82438988Y-153505819D01*
X82438988Y-153505819D02*
X82581845Y-153553438D01*
X82915179Y-153505819D02*
X83153274Y-154505819D01*
X83153274Y-154505819D02*
X83343750Y-153791533D01*
X83343750Y-153791533D02*
X83534226Y-154505819D01*
X83534226Y-154505819D02*
X83772322Y-153505819D01*
X84105655Y-153601057D02*
X84153274Y-153553438D01*
X84153274Y-153553438D02*
X84248512Y-153505819D01*
X84248512Y-153505819D02*
X84486607Y-153505819D01*
X84486607Y-153505819D02*
X84581845Y-153553438D01*
X84581845Y-153553438D02*
X84629464Y-153601057D01*
X84629464Y-153601057D02*
X84677083Y-153696295D01*
X84677083Y-153696295D02*
X84677083Y-153791533D01*
X84677083Y-153791533D02*
X84629464Y-153934390D01*
X84629464Y-153934390D02*
X84058036Y-154505819D01*
X84058036Y-154505819D02*
X84677083Y-154505819D01*
X120110417Y-154458200D02*
X120253274Y-154505819D01*
X120253274Y-154505819D02*
X120491369Y-154505819D01*
X120491369Y-154505819D02*
X120586607Y-154458200D01*
X120586607Y-154458200D02*
X120634226Y-154410580D01*
X120634226Y-154410580D02*
X120681845Y-154315342D01*
X120681845Y-154315342D02*
X120681845Y-154220104D01*
X120681845Y-154220104D02*
X120634226Y-154124866D01*
X120634226Y-154124866D02*
X120586607Y-154077247D01*
X120586607Y-154077247D02*
X120491369Y-154029628D01*
X120491369Y-154029628D02*
X120300893Y-153982009D01*
X120300893Y-153982009D02*
X120205655Y-153934390D01*
X120205655Y-153934390D02*
X120158036Y-153886771D01*
X120158036Y-153886771D02*
X120110417Y-153791533D01*
X120110417Y-153791533D02*
X120110417Y-153696295D01*
X120110417Y-153696295D02*
X120158036Y-153601057D01*
X120158036Y-153601057D02*
X120205655Y-153553438D01*
X120205655Y-153553438D02*
X120300893Y-153505819D01*
X120300893Y-153505819D02*
X120538988Y-153505819D01*
X120538988Y-153505819D02*
X120681845Y-153553438D01*
X121015179Y-153505819D02*
X121253274Y-154505819D01*
X121253274Y-154505819D02*
X121443750Y-153791533D01*
X121443750Y-153791533D02*
X121634226Y-154505819D01*
X121634226Y-154505819D02*
X121872322Y-153505819D01*
X122681845Y-153505819D02*
X122491369Y-153505819D01*
X122491369Y-153505819D02*
X122396131Y-153553438D01*
X122396131Y-153553438D02*
X122348512Y-153601057D01*
X122348512Y-153601057D02*
X122253274Y-153743914D01*
X122253274Y-153743914D02*
X122205655Y-153934390D01*
X122205655Y-153934390D02*
X122205655Y-154315342D01*
X122205655Y-154315342D02*
X122253274Y-154410580D01*
X122253274Y-154410580D02*
X122300893Y-154458200D01*
X122300893Y-154458200D02*
X122396131Y-154505819D01*
X122396131Y-154505819D02*
X122586607Y-154505819D01*
X122586607Y-154505819D02*
X122681845Y-154458200D01*
X122681845Y-154458200D02*
X122729464Y-154410580D01*
X122729464Y-154410580D02*
X122777083Y-154315342D01*
X122777083Y-154315342D02*
X122777083Y-154077247D01*
X122777083Y-154077247D02*
X122729464Y-153982009D01*
X122729464Y-153982009D02*
X122681845Y-153934390D01*
X122681845Y-153934390D02*
X122586607Y-153886771D01*
X122586607Y-153886771D02*
X122396131Y-153886771D01*
X122396131Y-153886771D02*
X122300893Y-153934390D01*
X122300893Y-153934390D02*
X122253274Y-153982009D01*
X122253274Y-153982009D02*
X122205655Y-154077247D01*
X75866666Y-113914819D02*
X75866666Y-114629104D01*
X75866666Y-114629104D02*
X75819047Y-114771961D01*
X75819047Y-114771961D02*
X75723809Y-114867200D01*
X75723809Y-114867200D02*
X75580952Y-114914819D01*
X75580952Y-114914819D02*
X75485714Y-114914819D01*
X76866666Y-114914819D02*
X76295238Y-114914819D01*
X76580952Y-114914819D02*
X76580952Y-113914819D01*
X76580952Y-113914819D02*
X76485714Y-114057676D01*
X76485714Y-114057676D02*
X76390476Y-114152914D01*
X76390476Y-114152914D02*
X76295238Y-114200533D01*
X101060417Y-135408200D02*
X101203274Y-135455819D01*
X101203274Y-135455819D02*
X101441369Y-135455819D01*
X101441369Y-135455819D02*
X101536607Y-135408200D01*
X101536607Y-135408200D02*
X101584226Y-135360580D01*
X101584226Y-135360580D02*
X101631845Y-135265342D01*
X101631845Y-135265342D02*
X101631845Y-135170104D01*
X101631845Y-135170104D02*
X101584226Y-135074866D01*
X101584226Y-135074866D02*
X101536607Y-135027247D01*
X101536607Y-135027247D02*
X101441369Y-134979628D01*
X101441369Y-134979628D02*
X101250893Y-134932009D01*
X101250893Y-134932009D02*
X101155655Y-134884390D01*
X101155655Y-134884390D02*
X101108036Y-134836771D01*
X101108036Y-134836771D02*
X101060417Y-134741533D01*
X101060417Y-134741533D02*
X101060417Y-134646295D01*
X101060417Y-134646295D02*
X101108036Y-134551057D01*
X101108036Y-134551057D02*
X101155655Y-134503438D01*
X101155655Y-134503438D02*
X101250893Y-134455819D01*
X101250893Y-134455819D02*
X101488988Y-134455819D01*
X101488988Y-134455819D02*
X101631845Y-134503438D01*
X101965179Y-134455819D02*
X102203274Y-135455819D01*
X102203274Y-135455819D02*
X102393750Y-134741533D01*
X102393750Y-134741533D02*
X102584226Y-135455819D01*
X102584226Y-135455819D02*
X102822322Y-134455819D01*
X103108036Y-134455819D02*
X103727083Y-134455819D01*
X103727083Y-134455819D02*
X103393750Y-134836771D01*
X103393750Y-134836771D02*
X103536607Y-134836771D01*
X103536607Y-134836771D02*
X103631845Y-134884390D01*
X103631845Y-134884390D02*
X103679464Y-134932009D01*
X103679464Y-134932009D02*
X103727083Y-135027247D01*
X103727083Y-135027247D02*
X103727083Y-135265342D01*
X103727083Y-135265342D02*
X103679464Y-135360580D01*
X103679464Y-135360580D02*
X103631845Y-135408200D01*
X103631845Y-135408200D02*
X103536607Y-135455819D01*
X103536607Y-135455819D02*
X103250893Y-135455819D01*
X103250893Y-135455819D02*
X103155655Y-135408200D01*
X103155655Y-135408200D02*
X103108036Y-135360580D01*
X101060417Y-154458200D02*
X101203274Y-154505819D01*
X101203274Y-154505819D02*
X101441369Y-154505819D01*
X101441369Y-154505819D02*
X101536607Y-154458200D01*
X101536607Y-154458200D02*
X101584226Y-154410580D01*
X101584226Y-154410580D02*
X101631845Y-154315342D01*
X101631845Y-154315342D02*
X101631845Y-154220104D01*
X101631845Y-154220104D02*
X101584226Y-154124866D01*
X101584226Y-154124866D02*
X101536607Y-154077247D01*
X101536607Y-154077247D02*
X101441369Y-154029628D01*
X101441369Y-154029628D02*
X101250893Y-153982009D01*
X101250893Y-153982009D02*
X101155655Y-153934390D01*
X101155655Y-153934390D02*
X101108036Y-153886771D01*
X101108036Y-153886771D02*
X101060417Y-153791533D01*
X101060417Y-153791533D02*
X101060417Y-153696295D01*
X101060417Y-153696295D02*
X101108036Y-153601057D01*
X101108036Y-153601057D02*
X101155655Y-153553438D01*
X101155655Y-153553438D02*
X101250893Y-153505819D01*
X101250893Y-153505819D02*
X101488988Y-153505819D01*
X101488988Y-153505819D02*
X101631845Y-153553438D01*
X101965179Y-153505819D02*
X102203274Y-154505819D01*
X102203274Y-154505819D02*
X102393750Y-153791533D01*
X102393750Y-153791533D02*
X102584226Y-154505819D01*
X102584226Y-154505819D02*
X102822322Y-153505819D01*
X103631845Y-153839152D02*
X103631845Y-154505819D01*
X103393750Y-153458200D02*
X103155655Y-154172485D01*
X103155655Y-154172485D02*
X103774702Y-154172485D01*
X120110417Y-135408200D02*
X120253274Y-135455819D01*
X120253274Y-135455819D02*
X120491369Y-135455819D01*
X120491369Y-135455819D02*
X120586607Y-135408200D01*
X120586607Y-135408200D02*
X120634226Y-135360580D01*
X120634226Y-135360580D02*
X120681845Y-135265342D01*
X120681845Y-135265342D02*
X120681845Y-135170104D01*
X120681845Y-135170104D02*
X120634226Y-135074866D01*
X120634226Y-135074866D02*
X120586607Y-135027247D01*
X120586607Y-135027247D02*
X120491369Y-134979628D01*
X120491369Y-134979628D02*
X120300893Y-134932009D01*
X120300893Y-134932009D02*
X120205655Y-134884390D01*
X120205655Y-134884390D02*
X120158036Y-134836771D01*
X120158036Y-134836771D02*
X120110417Y-134741533D01*
X120110417Y-134741533D02*
X120110417Y-134646295D01*
X120110417Y-134646295D02*
X120158036Y-134551057D01*
X120158036Y-134551057D02*
X120205655Y-134503438D01*
X120205655Y-134503438D02*
X120300893Y-134455819D01*
X120300893Y-134455819D02*
X120538988Y-134455819D01*
X120538988Y-134455819D02*
X120681845Y-134503438D01*
X121015179Y-134455819D02*
X121253274Y-135455819D01*
X121253274Y-135455819D02*
X121443750Y-134741533D01*
X121443750Y-134741533D02*
X121634226Y-135455819D01*
X121634226Y-135455819D02*
X121872322Y-134455819D01*
X122729464Y-134455819D02*
X122253274Y-134455819D01*
X122253274Y-134455819D02*
X122205655Y-134932009D01*
X122205655Y-134932009D02*
X122253274Y-134884390D01*
X122253274Y-134884390D02*
X122348512Y-134836771D01*
X122348512Y-134836771D02*
X122586607Y-134836771D01*
X122586607Y-134836771D02*
X122681845Y-134884390D01*
X122681845Y-134884390D02*
X122729464Y-134932009D01*
X122729464Y-134932009D02*
X122777083Y-135027247D01*
X122777083Y-135027247D02*
X122777083Y-135265342D01*
X122777083Y-135265342D02*
X122729464Y-135360580D01*
X122729464Y-135360580D02*
X122681845Y-135408200D01*
X122681845Y-135408200D02*
X122586607Y-135455819D01*
X122586607Y-135455819D02*
X122348512Y-135455819D01*
X122348512Y-135455819D02*
X122253274Y-135408200D01*
X122253274Y-135408200D02*
X122205655Y-135360580D01*
X115766667Y-112627200D02*
X115909524Y-112674819D01*
X115909524Y-112674819D02*
X116147619Y-112674819D01*
X116147619Y-112674819D02*
X116242857Y-112627200D01*
X116242857Y-112627200D02*
X116290476Y-112579580D01*
X116290476Y-112579580D02*
X116338095Y-112484342D01*
X116338095Y-112484342D02*
X116338095Y-112389104D01*
X116338095Y-112389104D02*
X116290476Y-112293866D01*
X116290476Y-112293866D02*
X116242857Y-112246247D01*
X116242857Y-112246247D02*
X116147619Y-112198628D01*
X116147619Y-112198628D02*
X115957143Y-112151009D01*
X115957143Y-112151009D02*
X115861905Y-112103390D01*
X115861905Y-112103390D02*
X115814286Y-112055771D01*
X115814286Y-112055771D02*
X115766667Y-111960533D01*
X115766667Y-111960533D02*
X115766667Y-111865295D01*
X115766667Y-111865295D02*
X115814286Y-111770057D01*
X115814286Y-111770057D02*
X115861905Y-111722438D01*
X115861905Y-111722438D02*
X115957143Y-111674819D01*
X115957143Y-111674819D02*
X116195238Y-111674819D01*
X116195238Y-111674819D02*
X116338095Y-111722438D01*
X116671429Y-111674819D02*
X116909524Y-112674819D01*
X116909524Y-112674819D02*
X117100000Y-111960533D01*
X117100000Y-111960533D02*
X117290476Y-112674819D01*
X117290476Y-112674819D02*
X117528572Y-111674819D01*
X117814286Y-111674819D02*
X118480952Y-111674819D01*
X118480952Y-111674819D02*
X118052381Y-112674819D01*
X82010417Y-135408200D02*
X82153274Y-135455819D01*
X82153274Y-135455819D02*
X82391369Y-135455819D01*
X82391369Y-135455819D02*
X82486607Y-135408200D01*
X82486607Y-135408200D02*
X82534226Y-135360580D01*
X82534226Y-135360580D02*
X82581845Y-135265342D01*
X82581845Y-135265342D02*
X82581845Y-135170104D01*
X82581845Y-135170104D02*
X82534226Y-135074866D01*
X82534226Y-135074866D02*
X82486607Y-135027247D01*
X82486607Y-135027247D02*
X82391369Y-134979628D01*
X82391369Y-134979628D02*
X82200893Y-134932009D01*
X82200893Y-134932009D02*
X82105655Y-134884390D01*
X82105655Y-134884390D02*
X82058036Y-134836771D01*
X82058036Y-134836771D02*
X82010417Y-134741533D01*
X82010417Y-134741533D02*
X82010417Y-134646295D01*
X82010417Y-134646295D02*
X82058036Y-134551057D01*
X82058036Y-134551057D02*
X82105655Y-134503438D01*
X82105655Y-134503438D02*
X82200893Y-134455819D01*
X82200893Y-134455819D02*
X82438988Y-134455819D01*
X82438988Y-134455819D02*
X82581845Y-134503438D01*
X82915179Y-134455819D02*
X83153274Y-135455819D01*
X83153274Y-135455819D02*
X83343750Y-134741533D01*
X83343750Y-134741533D02*
X83534226Y-135455819D01*
X83534226Y-135455819D02*
X83772322Y-134455819D01*
X84677083Y-135455819D02*
X84105655Y-135455819D01*
X84391369Y-135455819D02*
X84391369Y-134455819D01*
X84391369Y-134455819D02*
X84296131Y-134598676D01*
X84296131Y-134598676D02*
X84200893Y-134693914D01*
X84200893Y-134693914D02*
X84105655Y-134741533D01*
D12*
%TO.C,SW2*%
X76358750Y-154940000D02*
X90328750Y-154940000D01*
X76358750Y-168910000D02*
X76358750Y-154940000D01*
X90328750Y-154940000D02*
X90328750Y-168910000D01*
X90328750Y-168910000D02*
X76358750Y-168910000D01*
%TO.C,SW6*%
X114458750Y-154940000D02*
X128428750Y-154940000D01*
X114458750Y-168910000D02*
X114458750Y-154940000D01*
X128428750Y-154940000D02*
X128428750Y-168910000D01*
X128428750Y-168910000D02*
X114458750Y-168910000D01*
%TO.C,J1*%
X74820000Y-115460000D02*
X76200000Y-115460000D01*
X74820000Y-116840000D02*
X74820000Y-115460000D01*
X74820000Y-118110000D02*
X74820000Y-125840000D01*
X74820000Y-118110000D02*
X77580000Y-118110000D01*
X74820000Y-125840000D02*
X77580000Y-125840000D01*
X77580000Y-118110000D02*
X77580000Y-125840000D01*
%TO.C,SW3*%
X95408750Y-135890000D02*
X109378750Y-135890000D01*
X95408750Y-149860000D02*
X95408750Y-135890000D01*
X109378750Y-135890000D02*
X109378750Y-149860000D01*
X109378750Y-149860000D02*
X95408750Y-149860000D01*
%TO.C,SW4*%
X95408750Y-154940000D02*
X109378750Y-154940000D01*
X95408750Y-168910000D02*
X95408750Y-154940000D01*
X109378750Y-154940000D02*
X109378750Y-168910000D01*
X109378750Y-168910000D02*
X95408750Y-168910000D01*
%TO.C,SW5*%
X114458750Y-135890000D02*
X128428750Y-135890000D01*
X114458750Y-149860000D02*
X114458750Y-135890000D01*
X128428750Y-135890000D02*
X128428750Y-149860000D01*
X128428750Y-149860000D02*
X114458750Y-149860000D01*
%TO.C,SW7*%
X114000000Y-115320000D02*
X114600000Y-115320000D01*
X114300000Y-115620000D02*
X114000000Y-115320000D01*
X114600000Y-115320000D02*
X114300000Y-115620000D01*
X115700000Y-113520000D02*
X115700000Y-125320000D01*
X119800000Y-113520000D02*
X115700000Y-113520000D01*
X119800000Y-125320000D02*
X115700000Y-125320000D01*
X121300000Y-119420000D02*
X122300000Y-119420000D01*
X121800000Y-118920000D02*
X121800000Y-119920000D01*
X123800000Y-113520000D02*
X127900000Y-113520000D01*
X127900000Y-113520000D02*
X127900000Y-115920000D01*
X127900000Y-118120000D02*
X127900000Y-120720000D01*
X127900000Y-122920000D02*
X127900000Y-125320000D01*
X127900000Y-125320000D02*
X123800000Y-125320000D01*
X124800000Y-119420000D02*
G75*
G02*
X118800000Y-119420000I-3000000J0D01*
G01*
X118800000Y-119420000D02*
G75*
G02*
X124800000Y-119420000I3000000J0D01*
G01*
%TO.C,SW1*%
X76358750Y-135890000D02*
X90328750Y-135890000D01*
X76358750Y-149860000D02*
X76358750Y-135890000D01*
X90328750Y-135890000D02*
X90328750Y-149860000D01*
X90328750Y-149860000D02*
X76358750Y-149860000D01*
%TD*%
M02*
