M48
; DRILL file {KiCad 9.0.6} date 2025-12-10T10:36:30-0800
; FORMAT={-:-/ absolute / metric / decimal}
; #@! TF.CreationDate,2025-12-10T10:36:30-08:00
; #@! TF.GenerationSoftware,Kicad,Pcbnew,9.0.6
; #@! TF.FileFunction,Plated,1,2,PTH
FMAT,2
METRIC
; #@! TA.AperFunction,Plated,PTH,ViaDrill
T1C0.300
; #@! TA.AperFunction,Plated,PTH,ViaDrill
T2C0.400
; #@! TA.AperFunction,Plated,PTH,ComponentDrill
T3C0.889
; #@! TA.AperFunction,Plated,PTH,ComponentDrill
T4C1.000
; #@! TA.AperFunction,Plated,PTH,ComponentDrill
T5C1.500
%
G90
G05
T1
X80.217Y-123.397
T2
X81.28Y-124.46
X93.98Y-124.46
X96.52Y-121.92
X99.06Y-134.62
X111.76Y-134.62
T3
X88.9Y-111.76
X88.9Y-114.3
X88.9Y-116.84
X88.9Y-119.38
X88.9Y-121.92
X88.9Y-124.46
X88.9Y-127.0
X104.14Y-111.76
X104.14Y-114.3
X104.14Y-116.84
X104.14Y-119.38
X104.14Y-121.92
X104.14Y-124.46
X104.14Y-127.0
T4
X76.2Y-116.84
X76.2Y-119.38
X76.2Y-121.92
X76.2Y-124.46
X114.3Y-116.92
X114.3Y-119.42
X114.3Y-121.92
X128.8Y-116.92
X128.8Y-121.92
T5
X79.534Y-140.335
X79.534Y-159.385
X85.884Y-137.795
X85.884Y-156.845
X98.584Y-140.335
X98.584Y-159.385
X104.934Y-137.795
X104.934Y-156.845
X117.634Y-140.335
X117.634Y-159.385
X123.984Y-137.795
X123.984Y-156.845
T5
X121.15Y-113.82G85X122.45Y-113.82
G05
X121.15Y-125.02G85X122.45Y-125.02
G05
M30
